{"title":"Four Pillars Of Basement 2015 Movies PDVDRip XviD New +Sample ☻r","uid":12804453,"size":739753903,"categoryP":"video","categoryS":"movies_dvdr","magnet":"?xt=urn:btih:7cf7ab66ab764a3ed9f2af404a7cfbe492a4f80c&amp;dn=Four+Pillars+Of+Basement+2015+Movies+PDVDRip+XviD+New+%2BSample+%E2%98%BBr&amp;tr=udp%3A%2F%2Ftracker.leechers-paradise.org%3A6969&amp;tr=udp%3A%2F%2Fzer0day.ch%3A1337&amp;tr=udp%3A%2F%2Fopen.demonii.com%3A1337&amp;tr=udp%3A%2F%2Ftracker.coppersurfer.tk%3A6969&amp;tr=udp%3A%2F%2Fexodus.desync.com%3A6969","seeders":1,"leechers":0,"uploader":"basicssom","files":2,"time":1448105069,"description":"----------------------------------------------------------------\r\nFour Pillars Of Basement 2015 Hindi Movies PDVDRip XviD AAC New Source with Sample ~ ☻rDX☻\r\n\r\nSCREEN SHOTS &amp; POSTER:\r\n  \nhttp://doctorhosts.com/2015/11/FourPillarsOfBasement/11.html  \nhttp://doctorhosts.com/2015/11/FourPillarsOfBasement/1.html  \nhttp://doctorhosts.com/2015/11/FourPillarsOfBasement/2.html  \nhttp://doctorhosts.com/2015/11/FourPillarsOfBasement/3.html  \nhttp://doctorhosts.com/2015/11/FourPillarsOfBasement/4.html  \nhttp://doctorhosts.com/2015/11/FourPillarsOfBasement/5.html  \nhttp://doctorhosts.com/2015/11/FourPillarsOfBasement/6.html  \nhttp://doctorhosts.com/2015/11/FourPillarsOfBasement/7.html  \nhttp://doctorhosts.com/2015/11/FourPillarsOfBasement/8.html  \nhttp://doctorhosts.com/2015/11/FourPillarsOfBasement/9.html  \nhttp://doctorhosts.com/2015/11/FourPillarsOfBasement/10.html\r\n\r\nFormat                                   : Matroska\r\nFormat version                           : Version 4 / Version 2\r\nFile size                                : 691 MiB\r\nDuration                                 : 1h 44mn\r\nOverall bit rate                         : 922 Kbps\r\nMovie name                               : Four Pillars Of Basement 2015 Hindi Movies PDVDRip XviD AAC New Source ~ rDX ~\r\n\r\nVideo\r\nID                                       : 1\r\nFormat                                   : MPEG-4 Visual\r\nFormat profile                           : Advanced   \r\nFormat settings, BVOP                    : Yes\r\nFormat settings, QPel                    : No\r\nFormat settings, GMC                     : No warppoints\r\nFormat settings, Matrix                  : Default (H.263)\r\nCodec ID                                 : V_MS/VFW/FOURCC / XVID\r\nCodec ID/Hint                            : XviD\r\nDuration                                 : 1h 44mn\r\nBit rate                                 : 775 Kbps\r\nWidth                                    : 640 pixels\r\nHeight                                   : 272 pixels\r\nDisplay aspect ratio                     : 2.35:1\r\nFrame rate mode                          : Constant\r\nFrame rate                               : 25.000 fps\r\nColor space                              : YUV\r\nChroma subsampling                       : 4:2:0\r\nBit depth                                : 8 bits\r\nScan type                                : Progressive\r\nCompression mode                         : Lossy\r\nBits/(Pixel*Frame)                       : 0.178\r\nStream size                              : 581 MiB (84%)\r\nTitle                                    : ~ rDX ~\r\nWriting library                          : XviD 1.2.1 (UTC 2008-12-04)\r\nDefault                                  : Yes\r\nForced                                   : No\r\n\r\nAudio\r\nID                                       : 2\r\nFormat                                   : MPEG Audio\r\nFormat version                           : Version 1\r\nFormat profile                           : Layer 3\r\nMode                                     : Joint stereo\r\nMode extension                           : MS Stereo\r\nCodec ID                                 : A_MPEG/L3\r\nCodec ID/Hint                            : MP3\r\nDuration                                 : 1h 44mn\r\nBit rate mode                            : Constant\r\nBit rate                                 : 128 Kbps\r\nChannel(s)                               : 2 channels\r\nSampling rate                            : 48.0 KHz\r\nCompression mode                         : Lossy\r\nStream size                              : 96.0 MiB (14%)\r\nTitle                                    : ~ rDX ~\r\nWriting library                          : LAME3.99r\r\nEncoding settings                        : -m j -V 4 -q 2 -lowpass 17 -b 128\r\nDefault                                  : Yes\r\nForced                                   : No\r\n\r\nIMDB                                      \nhttp://www.imdb.com/title/tt4565796/","torrent":{"xt":"urn:btih:7cf7ab66ab764a3ed9f2af404a7cfbe492a4f80c","amp;dn":"Four+Pillars+Of+Basement+2015+Movies+PDVDRip+XviD+New+%2BSample+%E2%98%BBr","amp;tr":["udp%3A%2F%2Ftracker.leechers-paradise.org%3A6969","udp%3A%2F%2Fzer0day.ch%3A1337","udp%3A%2F%2Fopen.demonii.com%3A1337","udp%3A%2F%2Ftracker.coppersurfer.tk%3A6969","udp%3A%2F%2Fexodus.desync.com%3A6969"],"infoHash":"7cf7ab66ab764a3ed9f2af404a7cfbe492a4f80c","infoHashBuffer":{"type":"Buffer","data":[124,247,171,102,171,118,74,62,217,242,175,64,74,124,251,228,146,164,248,12]},"announce":[],"urlList":[]}}